# xmcd
#
# Track frame offsets:
#	150
#	20423
#	39325
#	53215
#	68902
#	87317
#	101866
#	115404
#	129576
#	154083
#	167878
#	189759
#
# Disc length: 2705 seconds
#
# Revision: 1
# Processed by: cddbd v1.5.2PL0 Copyright (c) Steve Scherf et al.
# Submitted via: audiograbber 1.83.01
#
DISCID=9d0a8f0c
DTITLE=Ruth Hanna - Each Step I Take
DYEAR=2005
DGENRE=Gospel
TTITLE0=The Love of God
TTITLE1=You Raise Me Up
TTITLE2=Refiner's Fire
TTITLE3=How Deep the Father's Love
TTITLE4=This is My Father's World
TTITLE5=Each Step I Take
TTITLE6=My Mother's Prayer
TTITLE7=Take My Life
TTITLE8=What a friend We Have in Jesus
TTITLE9=The Name of the Lord is a strong Tower
TTITLE10=In Christ ALone
TTITLE11=Grateful Hearts
EXTD=
EXTT0=
EXTT1=
EXTT2=
EXTT3=
EXTT4=
EXTT5=
EXTT6=
EXTT7=
EXTT8=
EXTT9=
EXTT10=
EXTT11=
PLAYORDER=
